<?xml version="1.0" encoding="UTF-8"?>
<svg width="72.882mm" height="14.539mm" version="1.1" viewBox="0 0 72.882 14.539" xmlns="http://www.w3.org/2000/svg">
    <g transform="translate(35.7 -67.536)">
        <path d="m37.05 77.812h-46.366v-2.4984h46.366z" fill="#040606"/>
        <g transform="matrix(.35278 0 0 -.35278 -32.801 67.663)">
            <path d="m0 0h20.55v-4.11h-20.55c-1.137 0-2.106-0.401-2.908-1.202-0.801-0.801-1.202-1.771-1.202-2.908s0.401-2.106 1.202-2.908c0.802-0.801 1.771-1.202 2.908-1.202h12.33c2.274 0 4.213-0.801 5.816-2.404s2.404-3.542 2.404-5.816-0.801-4.213-2.404-5.816-3.542-2.404-5.816-2.404h-20.55v4.11h20.55c1.137 0 2.107 0.401 2.908 1.202 0.802 0.801 1.202 1.771 1.202 2.908s-0.4 2.106-1.202 2.908c-0.801 0.801-1.771 1.202-2.908 1.202h-12.33c-2.274 0-4.213 0.801-5.815 2.404-1.603 1.603-2.405 3.542-2.405 5.816s0.802 4.213 2.405 5.816c1.602 1.603 3.541 2.404 5.815 2.404" fill="#040606"/>
        </g>
        <g transform="matrix(.35278 0 0 -.35278 -18.336 67.663)">
            <path d="m0 0h-20.55v-4.11h20.55c1.137 0 2.106-0.401 2.908-1.202 0.801-0.801 1.202-1.771 1.202-2.908s-0.401-2.106-1.202-2.908c-0.802-0.801-1.771-1.202-2.908-1.202h-12.33c-2.274 0-4.213-0.801-5.816-2.404s-2.404-3.542-2.404-5.816 0.801-4.213 2.404-5.816 3.542-2.404 5.816-2.404h20.55v4.11h-20.55c-1.138 0-2.107 0.401-2.908 1.202-0.802 0.801-1.202 1.771-1.202 2.908s0.4 2.106 1.202 2.908c0.801 0.801 1.77 1.202 2.908 1.202h12.33c2.274 0 4.213 0.801 5.816 2.404 1.602 1.603 2.404 3.542 2.404 5.816s-0.802 4.213-2.404 5.816c-1.603 1.603-3.542 2.404-5.816 2.404m0-0.75c2.086 0 3.815-0.714 5.286-2.185 1.469-1.47 2.184-3.198 2.184-5.285 0-2.086-0.715-3.815-2.184-5.285-1.471-1.471-3.2-2.185-5.286-2.185h-12.33c-1.338 0-2.495-0.478-3.438-1.422-0.944-0.943-1.422-2.1-1.422-3.438s0.478-2.495 1.422-3.438c0.943-0.944 2.1-1.422 3.438-1.422h19.8v-2.61h-19.8c-2.087 0-3.816 0.714-5.286 2.185-1.469 1.47-2.184 3.198-2.184 5.285 0 2.086 0.715 3.815 2.184 5.285 1.47 1.471 3.199 2.185 5.286 2.185h12.33c1.338 0 2.495 0.478 3.438 1.422 0.944 0.943 1.422 2.1 1.422 3.438s-0.478 2.495-1.422 3.438c-0.943 0.944-2.1 1.422-3.438 1.422h-19.8v2.61h19.8" fill="#231f20"/>
        </g>
        <g transform="matrix(.35278 0 0 -.35278 -6.3456 72.724)">
            <path d="m0 0h8.36v-2.389h-8.36c-2.309 0-4.28 0.816-5.912 2.449-1.632 1.631-2.448 3.603-2.448 5.912 0 2.308 0.816 4.278 2.448 5.911 1.632 1.632 3.603 2.448 5.912 2.448h8.36v-2.388h-8.36c-1.648 0-3.053-0.581-4.216-1.744-0.876-0.876-1.425-1.887-1.648-3.033h14.224v-2.389h-14.224c0.223-1.147 0.772-2.154 1.648-3.021 1.163-1.171 2.568-1.756 4.216-1.756" fill="#040606"/>
        </g>
        <g transform="matrix(.35278 0 0 -.35278 -.86846 67.668)">
            <path d="m0 0h11.942v-2.388h-11.942c-0.661 0-1.224-0.233-1.69-0.699s-0.699-1.029-0.699-1.69 0.233-1.224 0.699-1.69 1.029-0.698 1.69-0.698h7.166c1.321 0 2.448-0.466 3.379-1.398 0.932-0.932 1.397-2.058 1.397-3.38 0-1.321-0.465-2.448-1.397-3.379-0.931-0.932-2.058-1.398-3.379-1.398h-11.943v2.389h11.943c0.66 0 1.224 0.233 1.689 0.698 0.466 0.466 0.699 1.029 0.699 1.69s-0.233 1.224-0.699 1.69c-0.465 0.466-1.029 0.699-1.689 0.699h-7.166c-1.322 0-2.448 0.466-3.38 1.397-0.932 0.932-1.397 2.058-1.397 3.38 0 1.321 0.465 2.448 1.397 3.38 0.932 0.931 2.058 1.397 3.38 1.397" fill="#040606"/>
        </g>
        <g transform="matrix(.35278 0 0 -.35278 5.8726 67.668)">
            <path d="m0 0h11.942v-2.388h-11.942c-0.661 0-1.224-0.233-1.69-0.699s-0.699-1.029-0.699-1.69 0.233-1.224 0.699-1.69 1.029-0.698 1.69-0.698h7.166c1.321 0 2.448-0.466 3.379-1.398 0.932-0.932 1.397-2.058 1.397-3.38 0-1.321-0.465-2.448-1.397-3.379-0.931-0.932-2.058-1.398-3.379-1.398h-11.943v2.389h11.943c0.66 0 1.224 0.233 1.689 0.698 0.466 0.466 0.699 1.029 0.699 1.69s-0.233 1.224-0.699 1.69c-0.465 0.466-1.029 0.699-1.689 0.699h-7.166c-1.322 0-2.448 0.466-3.38 1.397-0.932 0.932-1.397 2.058-1.397 3.38 0 1.321 0.465 2.448 1.397 3.38 0.932 0.931 2.058 1.397 3.38 1.397" fill="#040606"/>
        </g>
        <g transform="matrix(.35278 0 0 -.35278 13.877 72.724)">
            <path d="m0 0h8.36v-2.389h-8.36c-2.309 0-4.279 0.816-5.912 2.449-1.632 1.631-2.448 3.603-2.448 5.912 0 2.308 0.816 4.278 2.448 5.911 1.633 1.632 3.603 2.448 5.912 2.448h8.36v-2.388h-8.36c-1.648 0-3.053-0.581-4.215-1.744-0.876-0.876-1.426-1.887-1.649-3.033h14.224v-2.389h-14.224c0.223-1.147 0.773-2.154 1.649-3.021 1.162-1.171 2.567-1.756 4.215-1.756" fill="#040606"/>
        </g>
        <g transform="matrix(.35278 0 0 -.35278 20.618 73.567)">
            <path d="m0 0h-8.36v2.389h8.36c1.648 0 3.055 0.583 4.221 1.749 1.167 1.166 1.75 2.574 1.75 4.222s-0.583 3.055-1.75 4.222c-1.166 1.166-2.573 1.75-4.221 1.75h-5.972v-9.555h-2.388v11.943h8.36c2.309 0 4.279-0.816 5.911-2.449 1.632-1.632 2.448-3.602 2.448-5.911s-0.816-4.28-2.448-5.912-3.602-2.448-5.911-2.448z" fill="none" stroke="#231f20" stroke-miterlimit="10" stroke-width=".75"/>
        </g>
        <g transform="matrix(.35278 0 0 -.35278 24.41 70.617)">
            <path d="m0 0v8.359h2.388v-8.359c0-1.648 0.584-3.056 1.75-4.222 1.166-1.167 2.574-1.75 4.222-1.75s3.055 0.583 4.222 1.75c1.166 1.166 1.749 2.574 1.749 4.222v8.359h2.389v-8.359c0-2.309-0.816-4.28-2.449-5.912-1.632-1.632-3.603-2.448-5.911-2.448-2.309 0-4.28 0.816-5.912 2.448s-2.448 3.603-2.448 5.912z" fill="none" stroke="#231f20" stroke-miterlimit="10" stroke-width=".75"/>
        </g>
        <g transform="matrix(.35278 0 0 -.35278 34.1 72.724)">
            <path d="m0 0h8.359v-2.389h-8.359c-2.309 0-4.28 0.816-5.912 2.449-1.632 1.631-2.448 3.603-2.448 5.912 0 2.308 0.816 4.278 2.448 5.911 1.632 1.632 3.603 2.448 5.912 2.448h8.359v-2.388h-8.359c-1.648 0-3.054-0.581-4.216-1.744-0.876-0.876-1.425-1.887-1.648-3.033h14.223v-2.389h-14.223c0.223-1.147 0.772-2.154 1.648-3.021 1.162-1.171 2.568-1.756 4.216-1.756z" fill="none" stroke="#231f20" stroke-miterlimit="10" stroke-width=".75"/>
        </g>
        <g transform="matrix(.35278 0 0 -.35278 -2.6775 76.805)">
            <path d="m0 0-0.795 1.968-0.804-1.968zm0.369-0.919h-2.344l-0.398-0.984h-1.18l2.2 5.066h1.179l2.164-5.066h-1.223z" fill="#fff"/>
        </g>
        <g transform="matrix(.35278 0 0 -.35278 3.7196 76.629)">
            <path d="m0 0h1.057c0.629 0 0.991 0.289 0.991 0.868 0 0.565-0.362 0.847-0.991 0.847h-1.057zm1.968-2.403-0.802 1.448h-1.166v-1.448h-1.143v5.066h2.2c1.324 0 2.077-0.637 2.077-1.759 0-0.781-0.334-1.345-0.948-1.635l1.078-1.672z" fill="#fff"/>
        </g>
        <g transform="matrix(.35278 0 0 -.35278 10.673 76.629)">
            <path d="m0 0h1.057c0.629 0 0.991 0.289 0.991 0.868 0 0.565-0.362 0.847-0.991 0.847h-1.057zm1.968-2.403-0.802 1.448h-1.166v-1.448h-1.143v5.066h2.2c1.324 0 2.077-0.637 2.077-1.759 0-0.781-0.334-1.345-0.948-1.635l1.078-1.672z" fill="#fff"/>
        </g>
        <g transform="matrix(.35278 0 0 -.35278 18.584 75.69)">
            <path d="m0 0v-0.948h-2.714v-1.1h2.439v-0.949h-2.439v-1.121h2.793v-0.948h-3.936v5.066z" fill="#fff"/>
        </g>
        <g transform="matrix(.35278 0 0 -.35278 25.321 76.586)">
            <path d="m0 0c0 0.934-0.652 1.578-1.52 1.578h-0.984v-3.14h1.034c0.847 0 1.47 0.636 1.47 1.562m1.165 7e-3c0-1.49-1.107-2.532-2.707-2.532h-2.105v5.066h2.148c1.571 0 2.664-1.036 2.664-2.534" fill="#fff"/>
        </g>
        <path d="m31.506 77.477h-0.40322v-1.7872h0.40322z" fill="#fff"/>
        <g transform="matrix(.35278 0 0 -.35278 .36319 81.319)">
            <path d="m0 0c0 0.928-0.632 1.599-1.519 1.599-0.896 0-1.527-0.671-1.527-1.599 0-0.927 0.631-1.591 1.527-1.591 0.887 0 1.519 0.664 1.519 1.591m0.624 3.838v-5.933h-0.624v0.904c-0.312-0.592-0.888-0.936-1.639-0.936-1.199 0-2.031 0.888-2.031 2.143s0.832 2.127 2.023 2.127c0.751 0 1.335-0.344 1.647-0.944v2.639z" fill="#231f20"/>
        </g>
        <path d="m1.3512 82.058h-0.21696v-1.4838h0.21696zm0.033867-1.9096c0 0.08431-0.061736 0.14922-0.14358 0.14922-0.081844 0-0.14393-0.06491-0.14393-0.14922 0-0.08749 0.062089-0.14958 0.14393-0.14958 0.081845 0 0.14358 0.06209 0.14358 0.14958" fill="#231f20"/>
        <g transform="matrix(.35278 0 0 -.35278 4.0713 80.084)">
            <path d="m0 0-8e-3 -0.935h-2.783v-1.511h2.535v-0.936h-2.535v-2.215h-1.071v5.597z" fill="#231f20"/>
        </g>
        <g transform="matrix(.35278 0 0 -.35278 5.3586 81.186)">
            <path d="m0 0c-0.024 0.632-0.448 1.031-1.096 1.031-0.615 0-1.047-0.399-1.143-1.031zm0.943-0.696h-3.158c0.136-0.607 0.6-0.975 1.223-0.975 0.44 0 0.848 0.168 1.152 0.48l0.56-0.584c-0.424-0.464-1.048-0.736-1.8-0.736-1.327 0-2.198 0.88-2.198 2.167 0 1.303 0.895 2.183 2.174 2.183 1.503 0 2.151-0.984 2.047-2.535" fill="#231f20"/>
        </g>
        <g transform="matrix(.35278 0 0 -.35278 6.891 80.535)">
            <path d="m0 0v-1.007c-0.903 0.056-1.455-0.472-1.455-1.247v-2.063h-1.04v4.277h1.04v-0.823c0.288 0.559 0.791 0.855 1.455 0.863" fill="#231f20"/>
        </g>
        <g transform="matrix(.35278 0 0 -.35278 8.2371 81.308)">
            <path d="m0 0c0 0.768-0.496 1.303-1.215 1.303-0.712 0-1.207-0.544-1.216-1.303 9e-3 -0.768 0.496-1.303 1.216-1.303 0.719 0 1.215 0.535 1.215 1.303m1.04 3.806v-5.933h-1.04v0.688c-0.304-0.472-0.799-0.736-1.439-0.736-1.224 0-2.039 0.896-2.039 2.199 0 1.295 0.815 2.166 2.015 2.166 0.655 0 1.151-0.263 1.463-0.743v2.359z" fill="#231f20"/>
        </g>
        <path d="m9.4425 82.058h-0.36689v-1.5092h0.36689zm0.014111-1.9406c0 0.11853-0.081844 0.20285-0.1972 0.20285-0.11571 0-0.19756-0.08431-0.19756-0.20285 0-0.11853 0.081844-0.2032 0.19756-0.2032 0.11536 0 0.1972 0.08467 0.1972 0.2032" fill="#231f20"/>
        <g transform="matrix(.35278 0 0 -.35278 11.364 81.116)">
            <path d="m0 0v-2.67h-1.047v2.366c0 0.6-0.36 0.968-0.952 0.968-0.703-8e-3 -1.119-0.528-1.119-1.231v-2.103h-1.04v4.277h1.04v-0.799c0.304 0.567 0.839 0.831 1.535 0.839 0.983 0 1.583-0.631 1.583-1.647" fill="#231f20"/>
        </g>
        <g transform="matrix(.35278 0 0 -.35278 12.665 81.533)">
            <path d="m0 0v0.384h-1.079c-0.552 0-0.808-0.152-0.808-0.528 0-0.36 0.288-0.592 0.76-0.592 0.6 0 1.071 0.32 1.127 0.736m8e-3 -1.487v0.519c-0.296-0.375-0.776-0.567-1.383-0.567-0.919 0-1.495 0.567-1.495 1.327 0 0.791 0.583 1.279 1.623 1.287h1.247v0.112c0 0.496-0.328 0.792-0.967 0.792-0.4 0-0.832-0.136-1.271-0.4l-0.376 0.72c0.615 0.343 1.095 0.527 1.879 0.527 1.119 0 1.751-0.567 1.758-1.519l9e-3 -2.798z" fill="#231f20"/>
        </g>
        <g transform="matrix(.35278 0 0 -.35278 14.909 81.116)">
            <path d="m0 0v-2.67h-1.047v2.366c0 0.6-0.36 0.968-0.952 0.968-0.703-8e-3 -1.119-0.528-1.119-1.231v-2.103h-1.04v4.277h1.04v-0.799c0.304 0.567 0.839 0.831 1.535 0.839 0.983 0 1.583-0.631 1.583-1.647" fill="#231f20"/>
        </g>
        <g transform="matrix(.35278 0 0 -.35278 16.41 81.308)">
            <path d="m0 0c0 0.768-0.496 1.303-1.215 1.303-0.712 0-1.207-0.544-1.216-1.303 9e-3 -0.768 0.496-1.303 1.216-1.303 0.719 0 1.215 0.535 1.215 1.303m1.04 3.806v-5.933h-1.04v0.688c-0.304-0.472-0.799-0.736-1.439-0.736-1.224 0-2.039 0.896-2.039 2.199 0 1.295 0.815 2.166 2.015 2.166 0.655 0 1.151-0.263 1.463-0.743v2.359z" fill="#231f20"/>
        </g>
        <g transform="matrix(.35278 0 0 -.35278 17.48 81.308)">
            <path d="m0 0c0-0.768 0.496-1.295 1.215-1.295 0.704 0 1.2 0.527 1.2 1.295s-0.496 1.295-1.2 1.295c-0.719 0-1.215-0.527-1.215-1.295m3.462 0.016c0-1.304-0.911-2.183-2.247-2.183-1.351 0-2.262 0.879-2.262 2.183 0 1.295 0.911 2.167 2.262 2.167 1.336 0 2.247-0.872 2.247-2.167" fill="#231f20"/>
        </g>
        <g transform="matrix(.35278 0 0 -.35278 20.531 80.411)">
            <path d="m0 0c-0.503 0-0.831-0.184-0.831-0.528 0-1.135 3.006-0.519 2.998-2.526 0-1.048-0.912-1.655-2.143-1.655-0.895 0-1.767 0.359-2.366 0.895l0.447 0.903c0.576-0.511 1.335-0.823 1.935-0.823s0.96 0.224 0.96 0.616c0 1.167-3.007 0.503-3.007 2.494 0 0.976 0.84 1.6 2.095 1.6 0.744 0 1.487-0.24 2.023-0.592l-0.432-0.927c-0.599 0.359-1.247 0.543-1.679 0.543" fill="#231f20"/>
        </g>
        <g transform="matrix(.35278 0 0 -.35278 22.659 81.186)">
            <path d="m0 0c-0.024 0.632-0.448 1.031-1.096 1.031-0.615 0-1.047-0.399-1.143-1.031zm0.943-0.696h-3.158c0.136-0.607 0.6-0.975 1.223-0.975 0.44 0 0.848 0.168 1.152 0.48l0.559-0.584c-0.423-0.464-1.047-0.736-1.799-0.736-1.327 0-2.198 0.88-2.198 2.167 0 1.303 0.895 2.183 2.174 2.183 1.504 0 2.151-0.984 2.047-2.535" fill="#231f20"/>
        </g>
        <g transform="matrix(.35278 0 0 -.35278 23.954 80.859)">
            <path d="m0 0c-0.687 0-1.167-0.512-1.167-1.263 0-0.768 0.48-1.279 1.167-1.279 0.496 0 0.896 0.167 1.151 0.503l0.648-0.535c-0.376-0.544-1.015-0.864-1.855-0.864-1.279 0-2.159 0.879-2.159 2.167 0 1.303 0.888 2.183 2.175 2.183 0.784 0 1.407-0.288 1.791-0.784l-0.632-0.6c-0.271 0.296-0.647 0.472-1.119 0.472" fill="#231f20"/>
        </g>
        <g transform="matrix(.35278 0 0 -.35278 25.492 80.859)">
            <path d="m0 0c-0.687 0-1.167-0.512-1.167-1.263 0-0.768 0.48-1.279 1.167-1.279 0.496 0 0.896 0.167 1.151 0.503l0.648-0.535c-0.376-0.544-1.015-0.864-1.855-0.864-1.279 0-2.159 0.879-2.159 2.167 0 1.303 0.888 2.183 2.175 2.183 0.784 0 1.407-0.288 1.791-0.784l-0.632-0.6c-0.271 0.296-0.647 0.472-1.119 0.472" fill="#231f20"/>
        </g>
        <g transform="matrix(.35278 0 0 -.35278 27.924 81.116)">
            <path d="m0 0v-2.67h-1.047v2.366c0 0.6-0.36 0.968-0.952 0.968-0.704-8e-3 -1.127-0.528-1.127-1.231v-2.103h-1.04v5.932h1.04v-2.47c0.303 0.583 0.839 0.847 1.543 0.855 0.983 0 1.583-0.631 1.583-1.647" fill="#231f20"/>
        </g>
        <path d="m28.704 82.058h-0.36689v-1.5092h0.36689zm0.01411-1.9406c0 0.11853-0.08184 0.20285-0.1972 0.20285-0.11571 0-0.19756-0.08431-0.19756-0.20285 0-0.11853 0.08184-0.2032 0.19756-0.2032 0.11536 0 0.1972 0.08467 0.1972 0.2032" fill="#231f20"/>
    </g>
</svg>
