<?xml version="1.0" encoding="UTF-8"?>
<svg width="42.463mm" height="30.746mm" version="1.1" viewBox="0 0 42.463 30.746" xmlns="http://www.w3.org/2000/svg">
    <g transform="translate(-66.906 -114.98)">
        <g transform="matrix(.35278 0 0 -.35278 -95.651 161.72)">
            <g>
                <path d="m580.78 45.344h-119.99v6.465h119.99z" fill="#040606"/>
                <path d="m487.21 132.5h34.56v-6.912h-34.56c-1.912 0-3.542-0.673-4.891-2.022-1.347-1.347-2.021-2.977-2.021-4.889 0-1.913 0.674-3.543 2.021-4.891 1.349-1.348 2.979-2.021 4.891-2.021h20.735c3.825 0 7.085-1.348 9.781-4.044s4.044-5.956 4.044-9.78c0-3.825-1.348-7.085-4.044-9.78-2.696-2.696-5.956-4.044-9.781-4.044h-34.558v6.912h34.558c1.912 0 3.543 0.674 4.891 2.022 1.348 1.347 2.021 2.977 2.021 4.89 0 1.912-0.673 3.542-2.021 4.89s-2.979 2.022-4.891 2.022h-20.735c-3.824 0-7.085 1.348-9.78 4.043-2.696 2.696-4.043 5.956-4.043 9.781 0 3.823 1.347 7.084 4.043 9.78 2.695 2.695 5.956 4.043 9.78 4.043" fill="#040606"/>
                <path d="m556.16 132.5h-34.56v-6.912h34.56c1.912 0 3.542-0.673 4.89-2.022 1.347-1.347 2.021-2.978 2.021-4.89s-0.674-3.542-2.021-4.89c-1.348-1.348-2.978-2.021-4.89-2.021h-20.736c-3.825 0-7.084-1.348-9.781-4.044-2.695-2.696-4.043-5.956-4.043-9.78 0-3.825 1.348-7.085 4.043-9.78 2.697-2.696 5.956-4.044 9.781-4.044h34.559v6.912h-34.559c-1.912 0-3.542 0.674-4.89 2.022-1.348 1.347-2.021 2.977-2.021 4.89 0 1.912 0.673 3.542 2.021 4.89s2.978 2.022 4.89 2.022h20.736c3.824 0 7.084 1.348 9.78 4.043 2.696 2.696 4.043 5.956 4.043 9.78s-1.347 7.085-4.043 9.781c-2.696 2.695-5.956 4.043-9.78 4.043m0-1c3.581 0 6.549-1.227 9.073-3.75 2.524-2.524 3.75-5.492 3.75-9.074 0-3.581-1.226-6.549-3.75-9.073-2.524-2.523-5.492-3.75-9.073-3.75h-20.736c-2.178 0-4.061-0.779-5.597-2.315s-2.314-3.419-2.314-5.597 0.778-4.062 2.314-5.597c1.535-1.536 3.419-2.315 5.597-2.315h33.559v-4.912h-33.559c-3.581 0-6.549 1.227-9.074 3.751-2.523 2.524-3.75 5.491-3.75 9.073 0 3.581 1.227 6.549 3.75 9.073 2.525 2.524 5.493 3.751 9.074 3.751h20.736c2.178 0 4.061 0.778 5.597 2.314s2.314 3.42 2.314 5.597c0 2.179-0.778 4.062-2.314 5.597-1.536 1.537-3.419 2.315-5.597 2.315h-33.56v4.912h33.56" fill="#231f20"/>
            </g>
            <g fill="#040606">
                <path d="m468.48 58.512h7.632v-2.181h-7.632c-2.108 0-3.907 0.745-5.397 2.236-1.491 1.489-2.236 3.289-2.236 5.397s0.745 3.906 2.236 5.397c1.49 1.49 3.289 2.235 5.397 2.235h7.632v-2.181h-7.632c-1.505 0-2.788-0.53-3.849-1.591-0.799-0.8-1.301-1.723-1.505-2.77h12.986v-2.181h-12.986c0.204-1.047 0.706-1.966 1.505-2.758 1.061-1.069 2.344-1.603 3.849-1.603"/>
                <path d="m482.65 71.596h10.903v-2.181h-10.903c-0.603 0-1.117-0.213-1.542-0.637-0.426-0.426-0.639-0.941-0.639-1.543 0-0.604 0.213-1.118 0.639-1.543 0.425-0.425 0.939-0.638 1.542-0.638h6.542c1.207 0 2.235-0.425 3.086-1.275 0.851-0.851 1.275-1.879 1.275-3.086s-0.424-2.236-1.275-3.086c-0.851-0.851-1.879-1.276-3.086-1.276h-10.903v2.181h10.903c0.604 0 1.118 0.213 1.543 0.638 0.426 0.425 0.638 0.939 0.638 1.543 0 0.603-0.212 1.117-0.638 1.543-0.425 0.424-0.939 0.637-1.543 0.637h-6.542c-1.206 0-2.234 0.425-3.085 1.276-0.851 0.85-1.276 1.879-1.276 3.086 0 1.206 0.425 2.235 1.276 3.086 0.851 0.849 1.879 1.275 3.085 1.275"/>
                <path d="m500.1 71.596h10.902v-2.181h-10.902c-0.604 0-1.118-0.213-1.543-0.637-0.426-0.426-0.639-0.941-0.639-1.543 0-0.604 0.213-1.118 0.639-1.543 0.425-0.425 0.939-0.638 1.543-0.638h6.542c1.206 0 2.234-0.425 3.085-1.275 0.851-0.851 1.275-1.879 1.275-3.086s-0.424-2.236-1.275-3.086c-0.851-0.851-1.879-1.276-3.085-1.276h-10.904v2.181h10.904c0.603 0 1.117 0.213 1.543 0.638 0.425 0.425 0.638 0.939 0.638 1.543 0 0.603-0.213 1.117-0.638 1.543-0.426 0.424-0.94 0.637-1.543 0.637h-6.542c-1.207 0-2.235 0.425-3.086 1.276-0.851 0.85-1.276 1.879-1.276 3.086 0 1.206 0.425 2.235 1.276 3.086 0.851 0.849 1.879 1.275 3.086 1.275"/>
                <path d="m520.82 58.512h7.633v-2.181h-7.633c-2.108 0-3.907 0.745-5.397 2.236-1.491 1.489-2.236 3.289-2.236 5.397s0.745 3.906 2.236 5.397c1.49 1.49 3.289 2.235 5.397 2.235h7.633v-2.181h-7.633c-1.505 0-2.788-0.53-3.849-1.591-0.799-0.8-1.301-1.723-1.505-2.77h12.987v-2.181h-12.987c0.204-1.047 0.706-1.966 1.505-2.758 1.061-1.069 2.344-1.603 3.849-1.603"/>
            </g>
            <g fill="none" stroke="#231f20" stroke-miterlimit="10" stroke-width=".75">
                <path d="m538.26 56.332h-7.633v2.181h7.633c1.505 0 2.789 0.532 3.854 1.597s1.597 2.35 1.597 3.855c0 1.504-0.532 2.789-1.597 3.853-1.065 1.066-2.349 1.598-3.854 1.598h-5.452v-8.723h-2.181v10.904h7.633c2.107 0 3.907-0.745 5.397-2.236 1.491-1.49 2.235-3.289 2.235-5.396 0-2.109-0.744-3.908-2.235-5.398-1.49-1.49-3.29-2.235-5.397-2.235z"/>
                <path d="m548.07 63.964v7.632h2.181v-7.632c0-1.505 0.532-2.79 1.597-3.854 1.065-1.066 2.35-1.598 3.855-1.598s2.789 0.532 3.854 1.598c1.065 1.064 1.597 2.349 1.597 3.854v7.632h2.181v-7.632c0-2.108-0.745-3.908-2.236-5.397-1.49-1.491-3.289-2.236-5.396-2.236-2.109 0-3.907 0.745-5.398 2.236-1.49 1.489-2.235 3.289-2.235 5.397z"/>
                <path d="m573.15 58.512h7.633v-2.181h-7.633c-2.107 0-3.907 0.745-5.397 2.236-1.491 1.489-2.235 3.289-2.235 5.397s0.744 3.906 2.235 5.397c1.49 1.49 3.29 2.235 5.397 2.235h7.633v-2.181h-7.633c-1.504 0-2.788-0.53-3.849-1.591-0.799-0.8-1.3-1.723-1.505-2.77h12.987v-2.181h-12.987c0.205-1.047 0.706-1.966 1.505-2.758 1.061-1.069 2.345-1.603 3.849-1.603z"/>
            </g>
            <g fill="#fff">
                <path d="m477.97 47.95-0.727 1.797-0.733-1.797zm0.337-0.839h-2.141l-0.363-0.898h-1.077l2.009 4.624h1.076l1.975-4.624h-1.116z"/>
                <path d="m494.53 48.406h0.965c0.574 0 0.905 0.264 0.905 0.792 0 0.516-0.331 0.773-0.905 0.773h-0.965zm1.797-2.193-0.733 1.321h-1.064v-1.321h-1.044v4.624h2.009c1.209 0 1.896-0.581 1.896-1.606 0-0.713-0.304-1.228-0.866-1.493l0.984-1.525z"/>
                <path d="m512.52 48.406h0.965c0.575 0 0.905 0.264 0.905 0.792 0 0.516-0.33 0.773-0.905 0.773h-0.965zm1.798-2.193-0.734 1.321h-1.064v-1.321h-1.043v4.624h2.008c1.209 0 1.896-0.581 1.896-1.606 0-0.713-0.303-1.228-0.865-1.493l0.984-1.525z"/>
                <path d="m533 50.836v-0.865h-2.478v-1.004h2.227v-0.866h-2.227v-1.024h2.55v-0.865h-3.593v4.624z"/>
                <path d="m550.43 48.518c0 0.852-0.595 1.439-1.388 1.439h-0.898v-2.866h0.945c0.773 0 1.341 0.581 1.341 1.427m1.063 6e-3c0-1.36-1.01-2.312-2.47-2.312h-1.923v4.624h1.963c1.433 0 2.43-0.944 2.43-2.312"/>
                <path d="m566.44 46.212h-1.044v4.624h1.044z"/>
            </g>
        </g>
    </g>
</svg>
