<?xml version="1.0" standalone="no"?>
<!DOCTYPE svg PUBLIC "-//W3C//DTD SVG 20010904//EN"
 "http://www.w3.org/TR/2001/REC-SVG-20010904/DTD/svg10.dtd">
<svg version="1.0" xmlns="http://www.w3.org/2000/svg"
 width="1232.000000pt" height="1232.000000pt" viewBox="0 0 1232.000000 1232.000000"
 preserveAspectRatio="xMidYMid meet">
<metadata>
Created by potrace 1.14, written by Peter Selinger 2001-2017
</metadata>
<g transform="translate(0.000000,1232.000000) scale(0.100000,-0.100000)"
fill="#000000" stroke="none">
<path d="M1585 9234 c-484 -57 -843 -247 -1167 -617 -176 -202 -303 -445 -367
-702 -19 -77 -25 -113 -39 -220 -8 -63 -8 -387 0 -440 4 -22 10 -65 14 -95 3
-30 10 -63 16 -72 5 -10 7 -18 4 -18 -3 0 0 -15 5 -32 6 -18 12 -44 15 -58 8
-42 65 -191 99 -260 94 -192 188 -324 344 -481 67 -68 106 -103 191 -173 80
-65 268 -173 400 -229 77 -33 238 -80 314 -91 21 -4 48 -8 60 -11 77 -16 281
-18 1576 -20 1001 -2 1465 -6 1510 -14 189 -32 344 -115 483 -259 123 -127
198 -272 232 -447 13 -69 14 -273 1 -325 -3 -14 -9 -38 -12 -54 -2 -16 -19
-65 -37 -110 -76 -193 -242 -373 -432 -469 -53 -26 -171 -64 -233 -74 -20 -4
-986 -8 -2147 -9 -1160 -2 -2179 -4 -2262 -4 l-153 0 0 -440 0 -440 2288 1
c1258 0 2310 4 2337 9 28 4 70 11 95 14 25 3 60 10 78 15 17 5 32 8 32 5 0 -3
8 0 18 5 11 6 30 12 43 14 37 7 182 58 197 69 6 6 12 8 12 4 0 -10 209 102
279 151 163 113 308 248 426 397 17 21 36 44 43 51 6 8 12 15 12 18 0 2 20 35
45 73 77 116 186 359 198 439 1 11 5 25 9 30 3 6 14 53 23 105 18 98 35 137
35 85 0 -17 7 -57 15 -91 8 -34 16 -72 19 -85 2 -13 13 -49 22 -79 10 -30 18
-57 19 -60 1 -3 7 -18 14 -35 16 -41 22 -60 22 -63 -1 -1 13 -30 30 -65 111
-221 260 -413 449 -580 138 -122 349 -252 495 -306 33 -12 67 -25 75 -28 8 -3
18 -7 23 -8 4 -2 8 -3 10 -5 1 -1 9 -3 17 -5 8 -2 51 -12 95 -23 44 -11 103
-23 130 -27 28 -4 61 -9 75 -13 14 -3 1063 -7 2333 -9 l2307 -3 0 440 0 440
-37 0 c-21 0 -1044 2 -2273 3 -1229 2 -2251 7 -2270 11 -112 24 -276 96 -328
144 -7 6 -17 12 -21 12 -20 0 -176 167 -221 236 -47 73 -108 212 -115 263 -2
15 -4 26 -5 26 -12 0 -19 295 -8 345 13 58 40 153 47 168 4 10 19 40 32 67 31
64 116 180 171 233 73 69 112 102 126 102 6 0 12 4 12 9 0 7 141 84 159 87 3
0 13 3 21 7 32 12 88 28 116 32 16 2 40 7 54 10 14 4 678 8 1475 10 798 1
1475 6 1505 9 115 13 169 23 250 46 36 9 67 18 70 18 3 0 12 3 20 6 139 50
198 75 270 113 98 53 250 152 250 164 0 4 9 11 20 14 11 4 73 59 138 123 131
130 147 148 214 242 26 36 51 70 55 75 70 92 177 336 216 495 46 188 56 279
52 495 -4 180 -6 202 -26 305 -5 30 -12 66 -15 80 -16 85 -89 277 -147 390
-176 336 -483 630 -827 792 -98 45 -265 103 -330 114 -8 1 -53 10 -100 20 -82
18 -270 19 -4670 20 -2522 0 -4598 0 -4615 -2z m5168 -156 c56 0 107 1 112 2
6 1 14 1 20 0 8 -1 181 -1 225 1 8 0 62 -1 120 -1 58 -1 110 -1 115 0 6 1 14
1 20 0 8 -1 181 -1 225 1 8 0 62 -1 120 -1 58 -1 110 -1 115 0 6 1 14 1 20 0
8 -1 181 -1 225 1 8 0 62 -1 120 -1 58 -1 110 -1 115 0 6 1 15 1 20 0 14 -2
127 -3 140 0 6 1 14 1 20 0 8 -1 181 -1 225 1 8 0 62 -1 120 -2 58 -2 111 1
118 5 7 4 17 4 23 1 16 -11 69 -12 69 -2 0 4 5 5 11 2 16 -11 69 -12 69 -2 0
4 5 5 11 2 16 -11 69 -12 69 -2 0 4 5 5 11 2 16 -11 69 -12 69 -2 0 4 5 5 11
2 16 -11 69 -12 69 -2 0 4 5 5 11 2 16 -11 69 -12 69 -2 0 4 5 5 11 2 16 -11
69 -12 69 -2 0 4 5 5 11 1 9 -5 203 -7 304 -3 6 0 57 -1 115 -1 58 -1 110 -1
115 0 6 1 14 1 20 0 8 -1 181 -1 225 1 8 0 62 -1 120 -1 58 -1 110 -1 115 0 6
1 14 2 19 1 5 -1 50 -4 100 -6 97 -4 210 -20 263 -36 17 -6 44 -12 60 -15 149
-27 419 -167 579 -299 47 -39 193 -184 225 -223 52 -63 129 -170 129 -180 0
-7 4 -12 8 -12 23 0 165 -330 186 -432 34 -165 39 -212 41 -376 1 -139 -2
-192 -19 -302 -6 -41 -22 -126 -25 -137 -1 -2 -2 -6 -3 -10 -10 -52 -77 -221
-120 -305 -78 -151 -154 -253 -293 -392 -136 -137 -136 -137 -263 -223 -135
-92 -335 -182 -458 -207 -11 -3 -39 -9 -64 -15 -145 -33 -184 -34 -1685 -36
-1114 -1 -1454 -4 -1500 -14 -154 -32 -295 -91 -403 -168 -84 -59 -225 -200
-277 -278 -33 -50 -96 -166 -100 -185 -2 -13 -28 -86 -34 -95 -3 -5 -6 -14 -7
-20 -29 -147 -33 -192 -29 -310 2 -71 8 -150 14 -175 5 -25 12 -58 15 -73 29
-132 135 -319 248 -437 53 -56 175 -160 187 -160 5 0 16 -6 23 -13 46 -44 266
-129 367 -142 30 -4 63 -9 75 -11 12 -2 996 -4 2188 -4 l2167 0 -1 -80 c-1
-43 1 -82 5 -86 3 -4 4 -11 0 -17 -9 -14 -10 -117 -1 -117 4 0 4 -10 0 -22 -9
-28 -8 -81 2 -97 4 -6 4 -11 -1 -11 -9 0 -9 -97 0 -106 4 -4 4 -11 1 -15 -7
-12 -4361 -10 -4443 2 -36 5 -82 11 -103 14 -20 3 -56 9 -80 15 -24 6 -50 12
-58 14 -176 43 -430 177 -581 306 -167 142 -346 358 -400 478 -8 18 -17 32
-21 32 -5 0 -8 7 -8 15 0 8 -8 29 -18 47 -22 40 -68 164 -83 222 -46 188 -53
249 -52 451 0 155 7 256 18 295 2 8 7 31 10 50 14 84 64 235 104 318 17 34 31
65 31 67 0 12 106 175 153 235 63 82 63 81 148 165 105 103 110 108 154 140
22 17 49 38 59 48 11 9 24 17 29 17 4 0 23 11 40 24 72 53 292 157 361 170 12
2 33 9 47 14 14 6 41 13 60 16 19 3 58 10 86 15 29 6 76 13 105 17 29 4 701 8
1493 9 792 1 1463 5 1490 9 293 43 549 206 723 459 81 117 140 271 160 417 11
79 6 293 -7 360 -53 256 -194 479 -406 637 -99 74 -250 147 -350 169 -96 21
-242 40 -282 35 -28 -3 -39 -3 -68 -2 -16 1 -41 0 -55 -2 -14 -1 -39 0 -56 4
-17 3 -39 2 -49 -4 -13 -7 -16 -6 -10 3 6 9 3 10 -10 3 -10 -6 -32 -7 -50 -3
-18 4 -38 4 -45 0 -11 -7 -91 -3 -99 5 -2 3 -13 0 -24 -6 -15 -8 -18 -8 -12 1
6 9 3 10 -10 3 -10 -6 -32 -7 -50 -3 -18 4 -38 4 -45 0 -11 -7 -91 -3 -99 5
-2 3 -13 0 -24 -6 -15 -8 -18 -8 -12 1 6 9 3 10 -10 3 -10 -6 -32 -7 -50 -3
-18 4 -38 4 -45 0 -11 -7 -91 -3 -99 5 -2 3 -13 0 -24 -6 -15 -8 -18 -8 -12 1
6 9 3 10 -10 3 -10 -6 -32 -7 -50 -3 -18 4 -38 4 -45 0 -11 -7 -91 -3 -99 5
-2 3 -13 0 -24 -6 -15 -8 -18 -8 -12 1 6 9 3 10 -10 3 -10 -6 -32 -7 -50 -3
-18 4 -38 4 -45 0 -11 -7 -91 -3 -99 5 -2 3 -13 0 -24 -6 -15 -8 -18 -8 -12 1
6 9 3 9 -12 1 -11 -6 -22 -8 -25 -6 -2 2 -17 5 -34 5 -31 0 -119 1 -144 0 -8
0 -44 0 -80 1 -36 0 -72 0 -80 0 -8 -1 -44 -1 -80 0 -36 0 -72 0 -80 0 -8 -1
-44 -1 -80 0 -36 0 -72 0 -80 0 -8 -1 -44 -1 -80 0 -36 0 -72 0 -80 0 -8 -1
-44 -1 -80 0 -36 0 -72 0 -80 0 -8 -1 -44 -1 -80 0 -36 0 -72 0 -80 0 -8 -1
-44 -1 -80 0 -36 0 -72 0 -80 0 -8 0 -71 0 -140 0 -142 0 -136 0 -170 -4 -14
-1 -39 0 -56 4 -17 3 -39 2 -49 -4 -13 -7 -16 -6 -10 3 6 9 3 10 -10 3 -10 -6
-32 -7 -50 -3 -18 4 -38 4 -45 0 -11 -7 -91 -3 -99 5 -2 3 -13 0 -24 -6 -15
-8 -18 -8 -12 1 6 9 3 10 -10 3 -10 -6 -32 -7 -50 -3 -18 4 -38 4 -45 0 -11
-7 -91 -3 -99 5 -2 3 -13 0 -24 -6 -15 -8 -18 -8 -12 1 6 9 3 10 -10 3 -10 -6
-32 -7 -50 -3 -18 4 -38 4 -45 0 -11 -7 -91 -3 -99 5 -2 3 -13 0 -24 -6 -15
-8 -18 -8 -12 1 6 9 3 10 -10 3 -10 -6 -32 -7 -50 -3 -18 4 -38 4 -45 0 -6 -4
-24 -6 -38 -4 -37 5 -85 7 -97 4 -5 -1 -25 -2 -42 -1 l-33 1 0 279 0 280 155
-1 c85 -1 158 1 161 5 4 4 11 4 15 1 5 -3 55 -5 112 -6z m3961 -734 c220 -38
414 -159 553 -344 118 -157 171 -326 168 -536 -4 -242 -81 -428 -249 -600 -79
-81 -199 -169 -243 -181 -13 -3 -23 -10 -23 -16 0 -6 -3 -8 -6 -4 -3 3 -25 -2
-47 -12 -46 -20 -117 -38 -187 -47 -25 -4 -691 -8 -1480 -9 -1342 -1 -1501 -4
-1605 -25 -22 -4 -65 -13 -95 -19 -157 -32 -397 -134 -535 -226 -214 -144
-402 -332 -543 -542 -23 -34 -42 -67 -42 -72 0 -6 -5 -11 -11 -11 -5 0 -8 -4
-4 -9 3 -5 1 -12 -5 -16 -9 -6 -26 -39 -78 -155 -52 -119 -105 -314 -114 -422
-1 -16 -6 -28 -11 -28 -4 0 -7 6 -5 13 4 21 -12 108 -38 207 -93 358 -295 666
-608 925 -27 22 -56 44 -65 49 -9 5 -18 12 -21 15 -3 4 -25 20 -50 36 -196
129 -420 217 -650 255 -30 5 -80 12 -110 16 -30 4 -696 8 -1480 9 -784 2
-1450 5 -1482 8 -182 20 -389 122 -507 251 -67 73 -77 84 -95 107 -32 39 -116
202 -116 226 0 12 -4 24 -8 27 -16 10 -36 151 -36 256 0 106 6 168 23 228 5
17 8 32 6 32 -12 0 93 221 115 240 3 3 17 21 31 40 70 92 178 186 282 244 66
37 214 89 227 81 5 -3 11 -2 14 3 2 4 22 9 42 10 21 2 40 4 42 6 2 2 2020 4
4486 4 3703 0 4497 -3 4560 -14z"/>
</g>
</svg>
