<?xml version="1.0" standalone="no"?>
<!DOCTYPE svg PUBLIC "-//W3C//DTD SVG 20010904//EN"
 "http://www.w3.org/TR/2001/REC-SVG-20010904/DTD/svg10.dtd">
<svg version="1.0" xmlns="http://www.w3.org/2000/svg"
 width="1128.000000pt" height="1128.000000pt" viewBox="0 0 1128.000000 1128.000000"
 preserveAspectRatio="xMidYMid meet">
<metadata>
Created by potrace 1.14, written by Peter Selinger 2001-2017
</metadata>
<g transform="translate(0.000000,1128.000000) scale(0.100000,-0.100000)"
fill="#000000" stroke="none">
<path d="M1640 5640 l0 -5640 4000 0 4000 0 0 5240 0 5240 -612 2 -613 3 -3
398 -2 397 -3385 0 -3385 0 0 -5640z m6595 0 l0 -5455 -3207 -3 -3208 -2 0
5460 0 5460 3208 -2 3207 -3 0 -5455z m927 -2751 c63 -13 121 -45 165 -91 106
-110 103 -313 -7 -399 -95 -75 -240 -56 -240 30 0 36 40 71 82 71 28 0 78 -38
78 -60 0 -20 47 -9 72 18 53 56 61 158 18 228 -12 18 -41 43 -68 56 -41 20
-62 23 -162 23 -125 0 -152 -8 -201 -62 -54 -57 -59 -124 -18 -210 17 -34 28
-45 59 -53 43 -12 56 -32 34 -55 -17 -17 -48 -12 -74 10 -16 14 -239 35 -363
35 -37 0 -67 2 -67 4 0 3 7 38 16 78 21 99 21 231 0 287 -20 55 -20 54 7 45
77 -24 127 -108 127 -214 0 -36 -5 -85 -11 -109 -5 -24 -8 -45 -6 -47 4 -5
229 -25 233 -21 2 2 -5 27 -16 55 -74 193 54 380 267 391 12 1 46 -4 75 -10z
m74 -684 c61 -25 111 -73 140 -132 47 -96 37 -236 -24 -326 -40 -60 -104 -92
-183 -92 -92 0 -149 36 -197 123 l-34 63 -29 -45 c-41 -66 -94 -97 -174 -103
-80 -7 -137 12 -189 63 -60 58 -71 88 -71 190 0 83 2 95 30 140 34 55 114 104
170 104 50 0 134 -48 168 -96 l30 -43 37 57 c40 62 72 88 135 109 47 15 139
10 191 -12z m-129 -698 c168 -47 264 -133 293 -262 22 -98 -7 -184 -80 -233
-40 -27 -98 -26 -131 4 -29 26 -25 78 7 103 32 25 43 26 90 4 36 -17 36 -17
55 6 40 49 11 155 -55 206 -51 39 -146 65 -261 72 l-100 5 37 -31 c49 -42 88
-122 88 -180 -1 -85 -55 -171 -135 -214 -59 -32 -199 -31 -273 2 -68 31 -144
113 -162 175 -15 55 -9 141 14 185 40 76 137 141 250 167 75 17 287 12 363 -9z
m283 -932 l0 -215 -25 0 c-24 0 -25 3 -25 60 0 104 16 100 -362 100 -380 0
-358 7 -358 -107 0 -71 -1 -74 -22 -71 -19 2 -24 13 -35 68 -7 36 -28 95 -47
132 -19 36 -32 69 -29 72 4 3 190 6 414 6 357 0 410 2 423 16 12 11 16 35 16
85 0 67 1 69 25 69 l25 0 0 -215z"/>
<path d="M4575 10469 c-593 -53 -1068 -204 -1465 -467 -136 -90 -327 -275
-405 -392 -176 -265 -257 -575 -242 -920 12 -250 52 -421 146 -615 123 -254
276 -417 581 -624 155 -105 263 -168 460 -266 329 -165 580 -264 1176 -465
562 -190 788 -283 1053 -437 460 -267 661 -554 678 -969 15 -357 -91 -635
-337 -885 -244 -247 -521 -381 -921 -444 -142 -23 -513 -31 -677 -15 -567 54
-1013 262 -1382 646 -163 169 -282 335 -381 534 -60 120 -138 337 -160 448
l-13 62 -164 0 -163 0 5 -52 c3 -29 15 -165 26 -303 11 -137 36 -448 55 -690
19 -242 44 -548 55 -680 11 -132 20 -248 20 -258 0 -16 12 -17 157 -15 l157 3
8 38 c19 93 82 164 167 188 25 8 82 13 126 12 80 -2 108 -8 375 -87 237 -70
549 -136 825 -173 193 -26 935 -26 1150 0 787 95 1347 329 1745 727 254 254
409 574 450 929 18 150 8 448 -19 572 -65 303 -198 536 -445 785 -187 187
-360 305 -681 464 -331 163 -623 278 -1275 500 -551 188 -690 243 -945 373
-460 236 -670 471 -731 821 -24 136 -15 377 20 511 30 115 88 242 150 329 150
210 446 377 787 445 155 30 278 41 476 41 373 0 670 -60 938 -190 158 -76 276
-161 410 -295 229 -229 382 -508 467 -852 l31 -123 159 0 158 0 0 31 c0 35
-106 1569 -116 1672 l-6 67 -137 0 -136 0 -23 -64 c-77 -213 -164 -227 -582
-91 -275 90 -426 125 -690 161 -136 19 -756 28 -915 13z"/>
<path d="M2360 2843 l0 -42 58 -11 c104 -20 136 -33 149 -61 26 -54 36 -398
29 -1044 -4 -346 -9 -649 -12 -673 -6 -38 -12 -47 -60 -80 -53 -36 -72 -67
-60 -97 4 -12 16 -14 63 -8 72 8 228 9 533 4 198 -4 247 -2 314 13 193 43 319
111 457 246 109 108 162 182 226 316 132 279 150 697 41 974 -66 169 -207 331
-354 407 -180 94 -267 104 -886 101 l-498 -3 0 -42z m1018 -104 c363 -83 550
-405 529 -909 -14 -336 -115 -590 -290 -731 -71 -57 -196 -115 -289 -134 -91
-18 -256 -20 -380 -4 -73 10 -91 15 -101 33 -9 16 -12 220 -12 856 0 459 3
847 7 861 7 25 13 27 105 38 196 23 298 21 431 -10z"/>
<path d="M4310 2843 l0 -43 70 0 c85 0 136 -19 152 -57 9 -20 14 -222 18 -748
6 -696 7 -723 28 -798 29 -106 65 -168 132 -230 64 -60 155 -107 267 -139 69
-20 101 -23 263 -23 206 0 245 8 375 73 97 48 200 153 248 252 67 137 68 144
77 865 5 358 13 668 18 690 19 88 57 115 162 115 l60 0 0 43 0 42 -300 0 -300
0 0 -41 0 -41 80 -6 c83 -5 121 -21 140 -57 21 -40 29 -226 30 -680 0 -594
-12 -736 -74 -857 -70 -138 -247 -223 -466 -223 -283 0 -456 128 -490 360 -16
109 -24 916 -12 1173 11 244 16 259 79 276 21 6 68 11 106 11 l67 0 0 43 0 42
-365 0 -365 0 0 -42z"/>
<path d="M6300 2843 l0 -42 48 -6 c115 -15 152 -26 168 -50 29 -45 35 -222 32
-982 -4 -899 7 -832 -138 -843 l-75 -5 -3 -42 -3 -43 333 0 c183 0 443 -2 578
-5 135 -3 283 -2 330 2 l85 8 3 60 c1 33 9 133 17 223 21 225 22 212 -19 212
-19 0 -37 -4 -40 -9 -3 -4 -17 -68 -31 -140 -35 -179 -34 -177 -96 -195 -113
-34 -399 -43 -631 -20 l-58 6 0 418 0 419 55 6 c71 9 411 0 449 -12 54 -17 71
-53 74 -164 l4 -99 41 0 42 0 0 335 0 335 -42 0 -41 0 -4 -105 c-4 -147 -2
-145 -195 -155 -81 -5 -201 -6 -265 -3 l-118 6 0 393 c0 245 4 395 10 399 5 3
101 9 212 12 208 6 315 -2 418 -33 66 -20 80 -35 80 -93 0 -26 3 -82 6 -124
l7 -77 38 0 37 0 7 108 c6 94 24 235 41 314 l6 26 -84 6 c-45 3 -352 5 -680 3
l-598 -2 0 -42z"/>
<path d="M9115 2135 c-22 -8 -41 -15 -42 -15 -6 0 -64 -108 -87 -162 l-29 -67
27 -45 c47 -80 116 -114 209 -102 126 14 188 116 157 255 -15 67 -65 123 -125
140 -50 14 -61 13 -110 -4z"/>
<path d="M8592 2083 c-41 -20 -62 -51 -73 -106 -21 -113 47 -207 149 -207 73
0 134 65 176 187 14 40 13 43 -10 75 -14 18 -39 41 -57 51 -41 22 -140 22
-185 0z"/>
<path d="M8680 1396 c-69 -15 -89 -26 -129 -71 -26 -30 -31 -44 -31 -87 0 -45
4 -54 38 -88 46 -46 92 -60 202 -60 95 0 147 18 190 64 34 38 36 126 3 172
-45 63 -167 94 -273 70z"/>
</g>
</svg>
