<?xml version="1.0" encoding="UTF-8"?>
<svg width="20.264mm" height="10.149mm" version="1.1" viewBox="0 0 20.264 10.149" xmlns="http://www.w3.org/2000/svg">
    <g transform="translate(-15.05 -141.94)">
        <g>
            <path d="m17.95 141.94h7.2496v1.4499h-7.2496c-0.40111 0-0.74295 0.14146-1.0259 0.42404-0.28258 0.28257-0.42404 0.62476-0.42404 1.0259s0.14146 0.74295 0.42404 1.0259c0.28293 0.28258 0.62477 0.42404 1.0259 0.42404h4.3498c0.80222 0 1.4863 0.28257 2.0518 0.84808 0.5655 0.5655 0.84808 1.2495 0.84808 2.0518 0 0.80222-0.28258 1.4863-0.84808 2.0518-0.5655 0.5655-1.2495 0.84808-2.0518 0.84808h-7.2496v-1.4499h7.2496c0.40111 0 0.7433-0.14146 1.0259-0.42404 0.28293-0.28257 0.42404-0.62477 0.42404-1.0259s-0.14111-0.74295-0.42404-1.0259c-0.28258-0.28258-0.62477-0.42404-1.0259-0.42404h-4.3498c-0.80222 0-1.4863-0.28258-2.0514-0.84808-0.5655-0.5655-0.84843-1.2495-0.84843-2.0518 0-0.80221 0.28293-1.4862 0.84843-2.0518 0.56515-0.56551 1.2492-0.84808 2.0514-0.84808" fill="#040606"/>
            <path d="m32.414 141.94h-7.2496v1.4499h7.2496c0.40111 0 0.74295 0.14146 1.0259 0.42404 0.28258 0.28257 0.42404 0.62476 0.42404 1.0259s-0.14146 0.74295-0.42404 1.0259c-0.28293 0.28258-0.62477 0.42404-1.0259 0.42404h-4.3498c-0.80222 0-1.4863 0.28257-2.0518 0.84808-0.5655 0.5655-0.84808 1.2495-0.84808 2.0518 0 0.80222 0.28258 1.4863 0.84808 2.0518 0.5655 0.5655 1.2495 0.84808 2.0518 0.84808h7.2496v-1.4499h-7.2496c-0.40146 0-0.7433-0.14146-1.0259-0.42404-0.28293-0.28257-0.42404-0.62477-0.42404-1.0259s0.14111-0.74295 0.42404-1.0259c0.28258-0.28258 0.62442-0.42404 1.0259-0.42404h4.3498c0.80222 0 1.4863-0.28258 2.0518-0.84808 0.56515-0.5655 0.84808-1.2495 0.84808-2.0518 0-0.80221-0.28293-1.4862-0.84808-2.0518-0.5655-0.56551-1.2495-0.84808-2.0518-0.84808m0 0.26458c0.73589 0 1.3458 0.25189 1.8648 0.77082 0.51823 0.51859 0.77047 1.1282 0.77047 1.8644 0 0.7359-0.25224 1.3458-0.77047 1.8644-0.51894 0.51894-1.1289 0.77082-1.8648 0.77082h-4.3498c-0.47202 0-0.88018 0.16863-1.2128 0.50165-0.33302 0.33267-0.50165 0.74084-0.50165 1.2128 0 0.47202 0.16863 0.88018 0.50165 1.2128 0.33267 0.33303 0.74083 0.50165 1.2128 0.50165h6.985v0.92075h-6.985c-0.73625 0-1.3462-0.25188-1.8648-0.77082-0.51823-0.51858-0.77047-1.1282-0.77047-1.8644 0-0.73589 0.25224-1.3458 0.77047-1.8644 0.51858-0.51893 1.1285-0.77082 1.8648-0.77082h4.3498c0.47202 0 0.88018-0.16862 1.2128-0.50165 0.33302-0.33267 0.50165-0.74083 0.50165-1.2128 0-0.47201-0.16863-0.88018-0.50165-1.2128-0.33267-0.33302-0.74083-0.50165-1.2128-0.50165h-6.985v-0.92075h6.985" fill="#231f20"/>
        </g>
    </g>
</svg>
