<?xml version="1.0" encoding="UTF-8"?>
<svg width="111mm" height="156mm" version="1.1" viewBox="0 0 111 156" xmlns="http://www.w3.org/2000/svg">
    <g transform="translate(.023399)">
        <g>
            <path d="m91.977 11h19v145h-19z" fill="#800000" />
            <g fill="#fff">
                <path d="m94.961 147.42h11.259q0.2526 0 0.38792-0.16713 0.18946-0.24234 0.18946-0.59331v-1.6212h0.67661v6.0083h-0.67661v-1.3872q0-0.43454-0.21652-0.64345-0.22554-0.20891-0.59542-0.20891h-8.5073q-0.26162 0-0.44206 0.1922-0.18043 0.1922-0.18043 0.49304v1.8551h-0.62249q-0.18043-1.3036-0.47814-2.1142-0.30673-0.81059-0.7939-1.429z" />
                <path d="m101 136.52q0.88411 0.54317 1.3352 1.2702 0.44205 0.72703 0.44205 1.6295 0 1.2535-0.94726 2.2813-0.94726 1.0195-2.7877 1.0195-1.7953 0-3.0493-1.1281-1.263-1.1365-1.263-2.7075 0-1.7298 1.5517-2.883 1.5517-1.1532 4.3574-1.1532 2.3276 0 3.9334 0.64346 1.5968 0.63509 2.3817 1.688 0.77585 1.0529 0.77585 2.3732 0 1.2786-0.60444 2.0056-0.61347 0.71866-1.4615 0.71866-0.55933 0-0.90215-0.29248-0.34281-0.30083-0.34281-0.75209 0-0.40947 0.2977-0.69359 0.29771-0.28412 0.71271-0.28412 0.2977 0 0.65857 0.25905 0.22554 0.15877 0.38792 0.15877 0.25261 0 0.44206-0.27576 0.18043-0.27576 0.18043-0.88579 0-0.86908-0.51423-1.5292-0.52325-0.66017-1.7051-1.0696-1.1908-0.40946-3.0763-0.40946zm-5.6204 2.3398q0 0.93594 0.84802 1.5376 0.839 0.60167 2.5351 0.60167 1.5517 0 2.3185-0.60167 0.7578-0.60167 0.7578-1.571 0-0.961-0.82096-1.6128-0.82095-0.66016-2.3005-0.66016-1.5337 0-2.4358 0.68523-0.90215 0.67688-0.90215 1.6212z" />
                <path d="m100.39 127.73q0.52325-1.337 1.3713-1.9304 0.83901-0.59332 2.0298-0.59332 1.4525 0 2.535 0.86072 1.3983 1.1114 1.3983 3.1671 0 1.8134-0.93824 2.8663-0.94726 1.0529-2.3546 1.0529-1.0555 0-1.8404-0.60167-0.79389-0.61002-1.3442-2.0975-1.0194 2.1978-3.1485 2.1978-1.3803 0-2.3727-0.98607-1.0014-0.99443-1.0014-2.5153 0-1.0446 0.38792-1.8134 0.38793-0.77716 1.0555-1.1783 0.66759-0.40946 1.3983-0.40946 1.696 0 2.8237 1.9805zm-0.23456 0.64346q-0.54129-0.87744-1.0645-1.1783-0.53227-0.30083-1.3893-0.30083-1.1277 0-1.7412 0.59332-0.61346 0.59331-0.61346 1.7214 0 1.0947 0.57738 1.7047 0.56836 0.61002 1.4886 0.61002 0.91118 0 1.4525-0.52645 0.54129-0.53482 1.2901-2.624zm1.3442 1.454q0.54129 1.1866 1.2179 1.6462 0.67662 0.4596 1.66 0.4596 1.281 0 1.9938-0.69359 0.70367-0.70194 0.70367-2.0139 0-1.3872-0.70367-2.156-0.71271-0.7688-1.8765-0.7688-1.0555 0-1.5968 0.66852-0.5413 0.66016-1.3983 2.8579z" />
                <path d="m94.727 122.35q0.52325-2.1142 0.52325-3.4512 0-0.62674-0.1263-1.1783-0.13532-0.55153-0.30673-0.82729-0.08119-0.14207-0.08119-0.18385 0-0.0835 0.13532-0.0835 0.31576 0 0.839 0.37605 0.51423 0.37604 0.82096 1.0278 0.30673 0.64346 0.30673 1.4875 0 0.97772-0.32478 2.3315l3.4462 0.27577q-0.34282-0.6351-0.51423-1.2117-0.17141-0.57659-0.17141-1.0947 0-1.6379 1.1728-2.7493 1.1728-1.1198 2.8959-1.1198 1.9126 0 3.1485 1.1866 1.236 1.1866 1.236 3.0752 0 1.4457-0.88412 2.3565-0.89313 0.9025-2.12 0.9025-0.73977 0-1.1367-0.28412-0.40596-0.29248-0.40596-0.74373 0-0.4429 0.32477-0.71866 0.31576-0.28412 0.82998-0.28412 0.38793 0 0.60444 0.14205 0.21652 0.13371 0.36087 0.50139 0.15336 0.36769 0.35183 0.36769 0.2887 0 0.64053-0.25069 0.34282-0.2507 0.56836-0.75209 0.21651-0.50975 0.21651-1.1616 0-1.2786-0.85704-1.9471-0.85704-0.67688-2.7876-0.67688-1.7592 0-2.5711 0.71031t-0.81194 1.8134q0 0.50139 0.19848 1.0028 0.19847 0.50139 0.59542 1.0028 0.63151 0.0585 0.84802 0.20891 0.2075 0.15042 0.2075 0.38441 0 0.16712-0.1263 0.2674t-0.35184 0.10028q-0.39695 0-0.78488-0.34261-0.11728-0.10029-0.20749-0.14207l-2.6523-0.1922q-1.5697-0.11699-3.0493-0.12534z" />
                <path d="m1.2261 1.2495h91.501v153.5h-91.501z" stroke="#800000" stroke-linecap="square" stroke-width="2.499" />
            </g>
            <g>
                <path d="m9.9766 77.667h4.4848q1.8974 9.7222 10.005 16.667 8.1072 6.9444 20.699 6.9444 10.867 0 16.904-5.1389 6.2098-5.1389 6.2098-12.917 0-6.5278-4.8298-10.833t-15.007-7.9167l-7.9347-2.6389q-14.317-4.8611-21.734-10.833t-7.4172-16.111q0-11.667 9.8322-17.778 9.8322-6.1111 25.184-6.1111 9.8322 0 17.422 2.9167 3.1049 0.97222 4.3124 0.97222 1.38 0 2.0699-0.83333 0.68998-0.97222 1.2075-2.6389h3.7949l1.7249 24.583h-4.4848q-1.7249-9.1667-8.1072-14.722-6.3823-5.5555-17.594-5.5555-9.1422 0-14.662 4.0278-5.3473 3.8889-5.3473 11.667 0 6.6667 4.8298 10.556t14.834 7.3611l8.2797 2.7778q9.1422 3.1944 15.179 6.3889 6.2098 3.1944 10.177 8.4722 3.9674 5.1389 3.9674 12.639 0 12.222-10.522 19.306-10.35 7.0833-28.117 7.0833-6.5548 0-10.867-0.83333-4.3124-0.69445-9.1422-2.0833-3.1049-1.1111-4.8298-1.1111-1.8974 0-2.9324 0.97223-0.86247 0.97222-1.035 2.5h-4.3124z" />
                <path d="m13.013 142.59q0.27446-3.1126 0.27446-10.884v-5.8236q0-3.5745-0.20584-6.165-0.12007-1.5061-0.32592-1.7471-0.18869-0.24097-1.4066-0.44178l-1.3723-0.24098v-1.2651q2.8303 0.10041 3.8081 0.10041l4.6143-0.0401 3.7566-0.0803q2.2643-0.0401 4.6486 0.52211 2.3843 0.56229 4.3227 2.2692 1.9383 1.6868 2.9504 4.2572 1.0121 2.5503 1.0121 5.9039 0 6.7875-3.911 11.225-3.8938 4.438-10.189 4.438l-2.1099-0.0603q-3.1048-0.14057-3.9281-0.14057-1.3894 0-3.5336 0.24098v-0.9639zm3.7051-0.10041q2.3157 0.40162 4.0825 0.40162 4.803 0 7.4618-2.8917 3.2077-3.5142 3.2077-10.241 0-5.8637-2.6759-8.9362-2.6588-3.0724-7.8048-3.0724-1.8011 0-4.2712 0.4217-0.20584 1.9278-0.20584 4.3777v13.133q0 3.6347 0.20584 6.8076z" />
                <path d="m37.062 117.29v-1.2651q3.5165 0.14057 5.1117 0.14057 1.681 0 4.9402-0.14057v1.2651h-1.2522q-1.6124 0-1.9383 0.72292-0.32592 0.72293-0.32592 6.5465v7.8719q0 4.3175 0.39453 6.0043 0.41168 1.6868 2.0927 2.8515 1.681 1.1647 4.4942 1.1647 2.8989 0 4.8887-1.245 1.3723-0.86349 2.007-2.6708 0.63468-1.8274 0.63468-6.908v-7.5706q0-5.2613-0.41168-6.0043-0.39453-0.76309-2.2128-0.76309h-0.89198v-1.2651q3.5508 0.14057 4.5114 0.14057 1.561 0 3.8767-0.14057v1.2651h-1.1664q-1.3551 0-1.7497 0.86349-0.37738 0.84342-0.37738 5.9842v7.5305q0 5.1609-0.44599 6.9682-0.42884 1.7872-1.5953 3.2331-1.1493 1.4459-3.0876 2.2893-1.9212 0.84341-4.5285 0.84341-2.6931 0-4.7172-0.743-2.0241-0.76309-3.0533-1.8676-1.0121-1.1045-1.4752-2.6909-0.44599-1.6065-0.44599-5.442l0.03431-3.8154v-6.1248q0-5.6629-0.29161-6.3457-0.27446-0.68276-1.8011-0.68276z" />
                <path d="m71.506 130.96v4.9199l0.01715 2.8315q0 2.6507 0.05146 3.8757 2.5044 0.22089 5.369 0.22089 1.9212 0 3.2248-0.20081 0.84052-0.12049 1.784-0.52212 0.42884-1.7671 0.87483-4.4179h1.1493q-0.46314 4.3978-0.46314 5.8637l0.03431 0.90366q-1.9726 0.2209-3.8767 0.2209l-2.6931-0.0603q-4.4599-0.14057-6.5526-0.14057-2.007 0-5.3347 0.14057v-1.2651h0.53176q1.4924 0 1.8697-0.34139 0.39453-0.34138 0.5146-1.6065 0.13723-1.2651 0.13723-5.5826v-11.025q0-2.711-0.12007-4.438-0.10292-1.727-0.24015-2.0483-0.12007-0.34138-0.36022-0.52211-0.24015-0.18073-1.4752-0.3213l-1.3208-0.16066v-1.245h1.8526l1.8183 0.0603q1.5267 0.0603 2.3157 0.0603l6.5869-0.10041 3.1219-0.0201q1.5953-0.0201 3.2248 0.16065-0.65183 2.3696-0.72045 6.165h-1.1664q0-2.2089-0.18869-3.6749-2.0241-0.88356-4.9745-0.88356-2.35 0-4.923 0.24096 0.01715 1.8876-0.03431 3.7753l-0.03431 3.0925v4.0765q1.6982 0.12049 3.0019 0.12049 4.0825 0 4.6143-0.3213 0.54891-0.34138 0.54891-2.0684v-1.3053h1.1664q-0.12007 3.0323-0.12007 4.8396 0 1.9077 0.12007 4.4982h-1.1664v-1.1647q0-1.9278-0.65183-2.3495-0.63468-0.4418-4.5285-0.4418-1.4409 0-2.9847 0.16066z" />
            </g>
        </g>
    </g>
</svg>